<?xml version="1.0" encoding="UTF-8"?>
<svg width="51px" height="39px" viewBox="0 0 51 39" version="1.1" xmlns="http://www.w3.org/2000/svg" xmlns:xlink="http://www.w3.org/1999/xlink">
    <!-- Generator: Sketch 60.1 (88133) - https://sketch.com -->
    <title>Group</title>
    <desc>Created with Sketch.</desc>
    <g id="Page-1" stroke="none" stroke-width="1" fill="none" fill-rule="evenodd" stroke-linecap="round">
        <g id="ZENTAE-About-Us" transform="translate(-421.000000, -632.000000)" stroke="#78FFD6">
            <g id="Group-4" transform="translate(397.000000, 632.000000)">
                <g id="Group" transform="translate(25.000000, 0.000000)">
                    <path d="M17.3765152,7.89090909 C18.9886364,7.18333333 20.8151515,7.38484848 21.9871212,8.55530303 C23.5742424,10.1431818 24.8719697,11.4401515 24.8719697,11.4401515" id="Path"></path>
                    <path d="M11.6151515,25.0530303 C11.6151515,25.0530303 10.2765152,23.7151515 8.64166667,22.0787879 C7.43787879,20.8757576 7.2030303,19.0265152 7.88939394,17.4060606" id="Path"></path>
                    <path d="M40.7583333,15.7886364 C42.5818182,17.6121212 42.7363636,20.444697 41.1,22.0810606 C39.4636364,23.7159091 38.1265152,25.055303 38.1265152,25.055303" id="Path"></path>
                    <path d="M24.8712121,11.4401515 C24.8712121,11.4401515 26.169697,10.1416667 27.7560606,8.55530303 C29.3431818,6.96818182 32.1318182,7.16363636 33.9575758,8.98712121" id="Path"></path>
                    <path d="M28.230303,14.7992424 L23.2545455,19.775 C22.5219697,20.5045455 21.3287879,20.5030303 20.6,19.775 L19.8939394,19.0689394 C19.1636364,18.3378788 19.1651515,17.1454545 19.8939394,16.4159091 L24.8712121,11.4393939" id="Path"></path>
                    <path d="M28.230303,14.7992424 L37.6424242,24.2106061 C38.3727273,24.9409091 38.3727273,26.1356061 37.6424242,26.8659091 L36.9363636,27.5689394 C36.2075758,28.3007576 35.0128788,28.3007576 34.2825758,27.5704545 L29.0265152,22.3136364" id="Path"></path>
                    <path d="M29.0257576,22.3128788 L34.2818182,27.569697 C35.0121212,28.3 35.0136364,29.4931818 34.2833333,30.2234848 L33.5780303,30.9287879 C32.8484848,31.6583333 31.6537879,31.6583333 30.9242424,30.9295455 L25.6681818,25.6727273" id="Path"></path>
                    <path d="M25.6689394,25.6727273 L30.925,30.9295455 C31.6545455,31.6583333 31.6545455,32.8530303 30.925,33.5825758 L30.2189394,34.2886364 C29.6780303,34.8265152 28.8856061,34.9674242 28.2143939,34.7090909" id="Path"></path>
                    <path d="M25.5325758,37.6462121 C24.8037879,38.3765152 23.6090909,38.3765152 22.880303,37.6462121 L22.1757576,36.9409091 C21.4439394,36.2113636 21.4439394,35.0166667 22.1742424,34.2871212 L24.4151515,32.0469697 C25.1431818,31.3166667 26.3378788,31.3166667 27.069697,32.0469697 L27.7757576,32.7530303 C28.5030303,33.4818182 28.5045455,34.6765152 27.7742424,35.4060606 L25.5325758,37.6462121 Z" id="Path"></path>
                    <path d="M22.175,34.2878788 C21.444697,35.0174242 20.25,35.0166667 19.5219697,34.2893939 L18.8166667,33.5833333 C18.0863636,32.8515152 18.0863636,31.6590909 18.8166667,30.9295455 L21.0568182,28.6893939 C21.7871212,27.9590909 22.9818182,27.9590909 23.7113636,28.6893939 L24.4151515,29.3924242 C25.1454545,30.1234848 25.1439394,31.3174242 24.4159091,32.0477273 L22.175,34.2878788 Z" id="Path"></path>
                    <path d="M18.8166667,30.9295455 C18.0863636,31.6590909 16.8931818,31.6583333 16.1628788,30.9287879 L15.4583333,30.2234848 C14.7280303,29.4931818 14.7280303,28.3 15.4575758,27.5689394 L17.6954545,25.3295455 C18.4265152,24.6 19.6219697,24.5992424 20.3522727,25.3295455 L21.0560606,26.0356061 C21.7856061,26.7651515 21.7871212,27.9590909 21.0568182,28.6893939 L18.8166667,30.9295455 Z" id="Path"></path>
                    <path d="M15.4575758,27.569697 C14.7280303,28.3007576 13.5348485,28.3007576 12.8030303,27.569697 L12.0992424,26.8659091 C11.369697,26.1356061 11.3689394,24.9416667 12.0992424,24.2113636 L14.3386364,21.9719697 C15.0689394,21.2416667 16.2613636,21.2416667 16.9909091,21.9712121 L17.6969697,22.6772727 C18.4287879,23.4068182 18.4265152,24.6007576 17.6954545,25.330303 L15.4575758,27.569697 Z" id="Path"></path>
                    <rect id="Rectangle" transform="translate(9.242976, 9.276625) rotate(-134.991897) translate(-9.242976, -9.276625) " x="6.34792811" y="-0.223283687" width="5.79009605" height="18.999818"></rect>
                    <rect id="Rectangle" transform="translate(40.655804, 9.416225) rotate(135.008103) translate(-40.655804, -9.416225) " x="37.7599985" y="-0.0844413308" width="5.79161118" height="19.0013331"></rect>
                    <circle id="Oval" cx="5.04545455" cy="13.4886364" r="1.26287879"></circle>
                    <circle id="Oval" cx="44.8734848" cy="13.6651515" r="1.26287879"></circle>
                    <polyline id="Path" points="8.69621212 18.2136364 6.55530303 16.0719697 16.0257576 6.60227273 18.2068182 8.78181818"></polyline>
                    <polyline id="Path" points="32.3772727 7.89924242 33.6954545 6.58181818 43.1651515 16.0515152 41.8401515 17.3772727"></polyline>
                </g>
            </g>
        </g>
    </g>
</svg>