<?xml version="1.0" encoding="UTF-8"?>
<svg width="50px" height="49px" viewBox="0 0 50 49" version="1.1" xmlns="http://www.w3.org/2000/svg" xmlns:xlink="http://www.w3.org/1999/xlink">
    <!-- Generator: Sketch 60.1 (88133) - https://sketch.com -->
    <title>Group</title>
    <desc>Created with Sketch.</desc>
    <g id="Page-1" stroke="none" stroke-width="1" fill="none" fill-rule="evenodd" stroke-linecap="round">
        <g id="ZENTAE-About-Us" transform="translate(-535.000000, -627.000000)" stroke="#78FFD6">
            <g id="Group-5" transform="translate(510.000000, 627.000000)">
                <g id="Group" transform="translate(25.000000, 0.000000)">
                    <path d="M39.9763636,24.4227273 C39.9763636,29.1854545 37.6936364,33.3945455 34.1490909,36.0309091 L33.4372727,41.1490909 L17.3381818,41.1490909 L16.6254545,36.0309091 C13.0818182,33.3954545 10.7990909,29.1863636 10.7990909,24.4227273 C10.7990909,16.3590909 17.3345455,9.82 25.3772727,9.82 C33.44,9.82090909 39.9763636,16.3590909 39.9763636,24.4227273 Z" id="Path"></path>
                    <line x1="32.5809091" y1="44.75" x2="18.1936364" y2="44.75" id="Path"></line>
                    <line x1="28.3345455" y1="48.0245455" x2="22.44" y2="48.0245455" id="Path"></line>
                    <path d="M27.5581818,31.2545455 L28.5954545,30.8318182 C28.7909091,30.7518182 28.8845455,30.53 28.8036364,30.3336364 L28.2718182,29.0318182 C28.2054545,28.8663636 28.2645455,28.6827273 28.4090909,28.5790909 C28.8227273,28.2754545 29.1845455,27.9163636 29.4845455,27.5163636 C29.5881818,27.3736364 29.7736364,27.3172727 29.9390909,27.3854545 L31.2327273,27.93 C31.4281818,28.0118182 31.6509091,27.92 31.7318182,27.7254545 L32.1663636,26.6936364 C32.2481818,26.4990909 32.1563636,26.2754545 31.9627273,26.1936364 L30.6672727,25.6481818 C30.5036364,25.5809091 30.4181818,25.4081818 30.4427273,25.2327273 C30.5181818,24.7390909 30.5236364,24.2290909 30.4509091,23.7227273 C30.4254545,23.5463636 30.5145455,23.3745455 30.6781818,23.3081818 L31.98,22.7763636 C32.1763636,22.6963636 32.2690909,22.4736364 32.1890909,22.2790909 L31.7672727,21.2418182 C31.6863636,21.0463636 31.4636364,20.9536364 31.2690909,21.0336364 L29.9672727,21.5654545 C29.8009091,21.6318182 29.6181818,21.5718182 29.5127273,21.4290909 C29.2109091,21.0145455 28.8518182,20.6527273 28.4518182,20.3536364 C28.31,20.2472727 28.2509091,20.0645455 28.32,19.8990909 L28.8654545,18.6045455 C28.9472727,18.41 28.8554545,18.1863636 28.6609091,18.1045455 L27.6290909,17.67 C27.4336364,17.5890909 27.2109091,17.68 27.1290909,17.8745455 L26.5836364,19.1690909 C26.5145455,19.3345455 26.3427273,19.4209091 26.1663636,19.3945455 C25.6736364,19.3181818 25.1645455,19.3136364 24.6563636,19.3872727 C24.4818182,19.4118182 24.3090909,19.3236364 24.2427273,19.1581818 L23.7109091,17.8563636 C23.6309091,17.6618182 23.41,17.5681818 23.2145455,17.6481818 L22.1763636,18.0709091 C21.9809091,18.15 21.8881818,18.3736364 21.9681818,18.5690909 L22.5,19.8709091 C22.5663636,20.0354545 22.5072727,20.22 22.3627273,20.3236364 C21.9490909,20.6263636 21.5872727,20.9863636 21.2881818,21.3863636 C21.1809091,21.5281818 20.9981818,21.5863636 20.8345455,21.5172727 L19.5381818,20.9727273 C19.3463636,20.8909091 19.1218182,20.9827273 19.04,21.1772727 L18.6054545,22.2090909 C18.5236364,22.4036364 18.6154545,22.6272727 18.8090909,22.7090909 L20.1045455,23.2536364 C20.2681818,23.3227273 20.3563636,23.4936364 20.3290909,23.67 C20.2509091,24.1645455 20.2481818,24.6727273 20.3218182,25.18 C20.3463636,25.3563636 20.2590909,25.5281818 20.0936364,25.5945455 L18.7918182,26.1263636 C18.5954545,26.2063636 18.5027273,26.4272727 18.5827273,26.6236364 L19.0054545,27.6609091 C19.0854545,27.8563636 19.3081818,27.9481818 19.5036364,27.8690909 L20.8054545,27.3381818 C20.9709091,27.2718182 21.1536364,27.33 21.2590909,27.4736364 C21.5609091,27.8881818 21.9209091,28.2490909 22.3209091,28.5490909 C22.4618182,28.6554545 22.5209091,28.8390909 22.4518182,29.0036364 L21.9072727,30.2981818 C21.8254545,30.4927273 21.9163636,30.7163636 22.1109091,30.7981818 L23.1445455,31.2327273 C23.3390909,31.3136364 23.5618182,31.2227273 23.6427273,31.0281818 L24.1881818,29.7336364 C24.2572727,29.5690909 24.4290909,29.4818182 24.6027273,29.5081818 C25.0981818,29.5845455 25.6063636,29.59 26.1154545,29.5154545 C26.2918182,29.49 26.4627273,29.5790909 26.5290909,29.7445455 L27.0609091,31.0472727 C27.1409091,31.2409091 27.3636364,31.3354545 27.5581818,31.2545455 Z" id="Path"></path>
                    <path d="M25.8072727,21.7745455 C26.7136364,21.9163636 27.5236364,22.5163636 27.8963636,23.4281818 C28.4618182,24.8136364 27.7981818,26.3945455 26.4118182,26.9618182 C25.0245455,27.5263636 23.4436364,26.8618182 22.8790909,25.4754545 C22.4536364,24.4363636 22.7218182,23.2863636 23.4672727,22.5390909 C23.7154545,22.29 24.0163636,22.0854545 24.3636364,21.9427273" id="Path"></path>
                    <line x1="17.2463636" y1="5.31454545" x2="15.22" y2="0.424545455" id="Path"></line>
                    <line x1="49.93" y1="14.8009091" x2="45.04" y2="16.8272727" id="Path"></line>
                    <line x1="5.73454545" y1="33.1090909" x2="0.844545455" y2="35.1336364" id="Path"></line>
                    <line x1="35.5536364" y1="0.424545455" x2="33.5290909" y2="5.31454545" id="Path"></line>
                    <line x1="5.72363636" y1="16.8372727" x2="0.833636364" y2="14.8118182" id="Path"></line>
                    <line x1="49.93" y1="35.1336364" x2="45.04" y2="33.1090909" id="Path"></line>
                </g>
            </g>
        </g>
    </g>
</svg>