<?xml version="1.0" encoding="UTF-8"?>
<svg width="53px" height="51px" viewBox="0 0 53 51" version="1.1" xmlns="http://www.w3.org/2000/svg" xmlns:xlink="http://www.w3.org/1999/xlink">
    <!-- Generator: Sketch 60.1 (88133) - https://sketch.com -->
    <title>Group</title>
    <desc>Created with Sketch.</desc>
    <g id="Page-1" stroke="none" stroke-width="1" fill="none" fill-rule="evenodd" stroke-linecap="round">
        <g id="ZENTAE-About-Us" transform="translate(-649.000000, -626.000000)" stroke="#78FFD6">
            <g id="Group-6" transform="translate(622.000000, 627.000000)">
                <g id="Group" transform="translate(28.000000, 0.000000)">
                    <path d="M32,43 L19,43 C19,40.6280509 20.3154057,38.5604972 22.2667882,37.4537821 L22.2667882,2 L28.7341993,2 L28.7341993,37.4537821 C30.6845943,38.5595247 32,40.6270784 32,43 Z" id="Path"></path>
                    <path d="M29,10.0611765 C30.19288,9.49741176 31.25538,8.73129412 32.1456616,7.81835294 C33.8435211,6.05270588 34.9274267,3.74776471 35.0899153,1.24235294 L45.1963141,0 L46,6.11482353 L39.6074863,6.90070588 C37.7413004,11.1567059 34.0244963,14.5430588 29.3152473,16" id="Path"></path>
                    <path d="M22,17 C17.3395498,16.5695869 13.1444687,14.2089804 10.3763911,10.6495019 L3.79653438,11.474143 L3,5.28743041 L13.2661212,4 C14.0645866,6.41488427 15.6982062,8.40887782 17.7827125,9.72106651 C18.9364805,10.4371521 20.2331419,10.9446967 21.6080085,11.1932318" id="Path"></path>
                    <path d="M40.856159,48.4844472 C41.119066,48.7680936 41.0110352,49 40.6181087,49 L10.3818913,49 C9.98896484,49 9.88093396,48.7680936 10.143841,48.4844472 L14.7404114,43.5155528 C15.0023624,43.2319064 15.5396487,43 15.9335312,43 L35.0683809,43 C35.4613073,43 35.9985936,43.2319064 36.2605446,43.5155528 L40.856159,48.4844472 Z" id="Path"></path>
                    <path d="M16,25.9329556 C16,25.9329556 16,27.523135 16,29.4664778 C16,31.4098206 12.3996533,33 8,33 C3.60034666,33 0,31.4098206 0,29.4664778 C0,27.523135 0,25.9329556 0,25.9329556 L8,16 L16,25.9329556 Z" id="Path"></path>
                    <line x1="8" y1="16" x2="8" y2="11" id="Path"></line>
                    <path d="M35,21.9333481 C35,21.9333481 35,23.5234392 35,25.4666741 C35,27.4099089 38.6003467,29 43,29 C47.3996533,29 51,27.4089647 51,25.4666741 C51,23.522495 51,21.9333481 51,21.9333481 L43,12 L35,21.9333481 Z" id="Path"></path>
                    <circle id="Oval" cx="25.5" cy="14" r="1"></circle>
                    <line x1="43" y1="12" x2="43" y2="7" id="Path"></line>
                    <line x1="0" y1="26" x2="16" y2="26" id="Path"></line>
                    <line x1="35" y1="22.5" x2="51" y2="22.5" id="Path"></line>
                </g>
            </g>
        </g>
    </g>
</svg>