<?xml version="1.0" encoding="UTF-8"?>
<svg width="39px" height="51px" viewBox="0 0 39 51" version="1.1" xmlns="http://www.w3.org/2000/svg" xmlns:xlink="http://www.w3.org/1999/xlink">
    <!-- Generator: Sketch 60.1 (88133) - https://sketch.com -->
    <title>Group</title>
    <desc>Created with Sketch.</desc>
    <g id="Page-1" stroke="none" stroke-width="1" fill="none" fill-rule="evenodd" stroke-linecap="round">
        <g id="ZENTAE-About-Us" transform="translate(-777.000000, -626.000000)" stroke="#78FFD6">
            <g id="Group-7" transform="translate(743.000000, 627.000000)">
                <g id="Group" transform="translate(34.000000, 0.000000)">
                    <path d="M17.884375,0.992708333 C18.740625,2.01875 20.140625,2.01875 20.996875,0.992708333 C21.8510417,-0.034375 22.9583333,0.140625 23.4541667,1.38125 C23.95,2.621875 25.2833333,3.05416667 26.4145833,2.34375 C27.5447917,1.63125 28.54375,2.140625 28.6322917,3.47291667 C28.721875,4.80729167 29.8541667,5.63020833 31.15,5.30208333 C32.4447917,4.97604167 33.2375,5.76666667 32.909375,7.0625 C32.58125,8.35833333 33.4052083,9.490625 34.7385417,9.58020833 C36.071875,9.66875 36.58125,10.6666667 35.86875,11.7979167 C35.15625,12.9291667 35.5885417,14.2604167 36.83125,14.7572917 C38.0708333,15.2552083 38.246875,16.3604167 37.2197917,17.215625 C36.19375,18.071875 36.19375,19.471875 37.2197917,20.3270833 C38.246875,21.1822917 38.0708333,22.2895833 36.83125,22.7854167 C35.5895833,23.2822917 35.1572917,24.6135417 35.86875,25.7458333 C36.58125,26.8760417 36.071875,27.8739583 34.7385417,27.9635417 C33.4052083,28.0520833 32.5822917,29.1854167 32.909375,30.48125 C33.2364583,31.7760417 32.4447917,32.56875 31.15,32.240625 C29.8541667,31.9135417 28.721875,32.7364583 28.6322917,34.0697917 C28.54375,35.403125 27.5447917,35.9125 26.4145833,35.2 C25.2833333,34.4875 23.9510417,34.9197917 23.4541667,36.1614583 C22.9572917,37.403125 21.8510417,37.5770833 20.996875,36.5510417 C20.140625,35.525 18.740625,35.525 17.884375,36.5510417 C17.0291667,37.5770833 15.9229167,37.4020833 15.4270833,36.1614583 C14.93125,34.9208333 13.5979167,34.4885417 12.4666667,35.2 C11.3354167,35.9114583 10.3375,35.403125 10.2489583,34.0697917 C10.159375,32.7364583 9.02708333,31.9135417 7.73125,32.240625 C6.43541667,32.5677083 5.64375,31.7760417 5.971875,30.48125 C6.29895833,29.1854167 5.47604167,28.0520833 4.14270833,27.9635417 C2.809375,27.8739583 2.3,26.8760417 3.0125,25.7458333 C3.725,24.6135417 3.29270833,23.2822917 2.05,22.7854167 C0.809375,22.2885417 0.634375,21.1822917 1.66145833,20.3270833 C2.6875,19.471875 2.6875,18.071875 1.66145833,17.215625 C0.634375,16.3604167 0.809375,15.2541667 2.05,14.7572917 C3.29166667,14.2604167 3.72395833,12.9291667 3.0125,11.7979167 C2.30104167,10.6666667 2.809375,9.66875 4.14270833,9.58020833 C5.47604167,9.490625 6.29895833,8.35833333 5.971875,7.0625 C5.64479167,5.76666667 6.43541667,4.975 7.73125,5.30208333 C9.02708333,5.63020833 10.159375,4.80729167 10.2489583,3.47291667 C10.3375,2.140625 11.3354167,1.63125 12.4666667,2.34375 C13.5979167,3.05520833 14.9302083,2.62291667 15.4270833,1.38125 C15.9239583,0.139583333 17.0291667,-0.034375 17.884375,0.992708333 Z" id="Path"></path>
                    <polyline id="Path" points="31.4270833 32.2916667 35.2708333 46.6354167 28.125 42.7916667 23.53125 49.78125 19.7916667 35.8229167"></polyline>
                    <polyline id="Path" points="7.45833333 32.2916667 3.61458333 46.6354167 10.7604167 42.7916667 15.3541667 49.78125 19.09375 35.8229167"></polyline>
                    <circle id="Oval" cx="19.440625" cy="18.771875" r="11.5833333"></circle>
                    <polygon id="Path" points="19.4395833 13.5635417 21.2770833 16.24375 24.39375 17.1625 22.4125 19.7375 22.5020833 22.9854167 19.4395833 21.896875 16.3791667 22.9854167 16.46875 19.7375 14.4864583 17.1625 17.603125 16.24375"></polygon>
                </g>
            </g>
        </g>
    </g>
</svg>