<?xml version="1.0" encoding="UTF-8"?>
<svg width="51px" height="48px" viewBox="0 0 51 48" version="1.1" xmlns="http://www.w3.org/2000/svg" xmlns:xlink="http://www.w3.org/1999/xlink">
    <!-- Generator: Sketch 60.1 (88133) - https://sketch.com -->
    <title>Group</title>
    <desc>Created with Sketch.</desc>
    <g id="Page-1" stroke="none" stroke-width="1" fill="none" fill-rule="evenodd">
        <g id="ZENTAE-About-Us" transform="translate(-309.000000, -627.000000)" stroke="#78FFD6">
            <g id="Group-3" transform="translate(285.000000, 628.000000)">
                <g id="Group" transform="translate(25.000000, 0.000000)">
                    <circle id="Oval" cx="8.68571429" cy="26.9734694" r="4.76632653"></circle>
                    <path d="M3.91938776,26.5806122 C3.91938776,26.5806122 7.42857143,27.3438776 9.1877551,24.9091837 C10.6826531,26.055102 11.8857143,26.055102 13.2806122,25.7091837" id="Path"></path>
                    <path d="M0.12244898,42.1836735 L0.12244898,38.8367347 C0.12244898,36.244898 2.2244898,34.1326531 4.8255102,34.1326531 L12.9479592,34.1326531 C14.744898,34.1326531 16.305102,35.1428571 17.0918367,36.6326531" id="Path" stroke-linecap="round"></path>
                    <circle id="Oval" cx="40.1397959" cy="26.9734694" r="4.76632653"></circle>
                    <path d="M35.3734694,26.5806122 C35.3734694,26.5806122 38.8826531,27.3438776 40.6418367,24.9091837 C42.1367347,26.055102 43.3397959,26.055102 44.7346939,25.7091837" id="Path"></path>
                    <path d="M32.1326531,36.6326531 C32.9183673,35.1428571 34.4795918,34.1326531 36.2755102,34.1326531 L44.3979592,34.1326531 C47,34.1326531 49.1020408,36.244898 49.1020408,38.8367347 L49.1020408,42.1836735" id="Path" stroke-linecap="round"></path>
                    <circle id="Oval" cx="24.4122449" cy="31.055102" r="4.76632653"></circle>
                    <path d="M19.6459184,30.6622449 C19.6459184,30.6622449 23.155102,31.4255102 24.9153061,28.9908163 C26.4102041,30.1367347 27.6122449,30.1367347 29.0071429,29.7908163" id="Path"></path>
                    <path d="M15.8510204,46.2683673 L15.8510204,42.9163265 C15.8510204,40.3214286 17.9561224,38.2183673 20.5489796,38.2183673 L28.6744898,38.2183673 C31.2693878,38.2183673 33.3734694,40.322449 33.3734694,42.9163265 L33.3734694,46.2683673" id="Path" stroke-linecap="round"></path>
                    <path d="M32.3989796,7.99693878 C32.3989796,10.6040816 31.1489796,12.9081633 29.2091837,14.3510204 L28.8183673,17.1530612 L20.0071429,17.1530612 L19.6163265,14.3510204 C17.6765306,12.9081633 16.4265306,10.6040816 16.4265306,7.99693878 C16.4265306,3.58265306 20.005102,0.00408163265 24.4061224,0.00408163265 C28.8204082,0.00510204082 32.3989796,3.58265306 32.3989796,7.99693878 Z" id="Path" stroke-linecap="round"></path>
                    <line x1="28.3510204" y1="19.1234694" x2="20.4744898" y2="19.1234694" id="Path" stroke-linecap="round"></line>
                    <line x1="26.0265306" y1="20.9173469" x2="22.8" y2="20.9173469" id="Path" stroke-linecap="round"></line>
                    <polygon id="Path" points="24.2540816 5.15510204 24.2826531 7.76938776 26.4571429 7.76938776 23.9061224 12.277551 23.9153061 9.13469388 21.827551 9.13469388"></polygon>
                </g>
            </g>
        </g>
    </g>
</svg>