<svg xmlns="http://www.w3.org/2000/svg" width="66" height="52" viewBox="0 0 66 52">
    <g fill="none" fill-rule="evenodd" stroke="#78FFD6">
        <path stroke-linecap="round" stroke-linejoin="round" d="M9.405 28.332c2.906-1.674 7.828-4.418 11.538-5.583.523-.16 1.021-.29 1.49-.388.86-.168 2.098-.257 3.571-.249 1.054 0 2.22.057 3.443.154.715.062 1.447.136 2.188.233 1.142.145 2.292.33 3.426.562.758.154 1.498.323 2.223.515 1.182.321 2.31.693 3.313 1.128.806.337 1.536.716 2.165 1.134v.008c1.28.845 2.132 1.858 2.316 3.041.105.66.05 1.206-.144 1.658-1.577 3.724-12.287.562-14.467-.009"/>
        <path stroke-linecap="round" stroke-linejoin="round" d="M17.361 41.189c11.813-4.61 13.751 1.665 23.333.949 5.592-.41 24.226-11.007 23.911-15.221-.192-2.616-3.194-2.801-5.229-2.536-.032 0-.057 0-.089.009-2.018.28-4.658 1.11-7.217 2.189-1.214.506-2.414 1.07-3.515 1.658-.757.4-1.465.81-2.108 1.229-.564.363-1.072.725-1.513 1.079M17.361 41.189L17.788 44.479 2.414 51.382.5 31.085 9.405 28.333z"/>
        <path stroke-linecap="round" stroke-linejoin="round" d="M10.339 40.143c.854-.097 1.617.507 1.713 1.368.099.853-.506 1.616-1.366 1.713-.853.097-1.617-.516-1.716-1.367-.096-.854.515-1.618 1.369-1.714z"/>
        <path d="M29.002 17.199v3.03c-1.101-.08-2.11-.12-2.99-.12h-.191c-.209 0-.42 0-.629.01v-2.92h3.81zM35.462 13.649v7.45c-1.141-.23-2.35-.43-3.57-.58l-.241-.03v-6.84h3.811zM41.932 10.14v12.97c-.18-.08-.36-.16-.54-.242-.95-.419-2.02-.79-3.28-1.129v-11.6h3.82zM48.392 7.809v18.26c-.26.13-.52.27-.77.4-.37.19-.72.39-1.05.58-.4-.801-1-1.53-1.81-2.21v-.07l-.18-.12V7.809h3.81zM54.862 5.248V23.42c-1.14.35-2.34.8-3.56 1.31-.09.04-.18.07-.26.11V5.25h3.82z"/>
        <path stroke-linecap="round" d="M25.188 13.483S40.888 7.555 46.633.5M46.633 3.965L46.633.5 43.168.5"/>
        <path stroke-linecap="round" stroke-linejoin="round" d="M59.376 24.381c-.03 0-.057 0-.089.01-2.017.28-4.658 1.108-7.218 2.187-1.213.506-2.413 1.07-3.513 1.658-.758.402-1.465.811-2.109 1.23-.563.361-1.07.725-1.512 1.08.192-.453.248-1 .143-1.66-.183-1.182-1.037-2.194-2.315-3.04v-.008c-.63-.418-1.36-.797-2.165-1.134-1.004-.435-2.132-.806-3.314-1.128-.724-.192-1.465-.36-2.222-.515-1.134-.232-2.285-.417-3.426-.562-.74-.097-1.474-.17-2.189-.233-1.223-.097-2.389-.154-3.443-.154-1.473-.007-2.712.081-3.57.25-.47.097-.968.226-1.49.387-3.71 1.165-8.632 3.91-11.539 5.583l7.956 12.857c11.813-4.61 13.751 1.665 23.333.95 5.592-.41 24.226-11.008 23.912-15.223-.193-2.615-3.195-2.8-5.23-2.535z"/>
    </g>
</svg>
