<svg xmlns="http://www.w3.org/2000/svg" width="65" height="54" viewBox="0 0 65 54">
    <g fill="none" fill-rule="evenodd" stroke="#78FFD6">
        <path stroke-linecap="round" d="M7.112 46.853H2.49c-1.1 0-1.99-.891-1.99-1.99V2.49C.5 1.391 1.39.5 2.49.5h59.998c1.1 0 1.99.891 1.99 1.99v42.373c0 1.099-.89 1.99-1.99 1.99H41.456"/>
        <path d="M41.23 36.892v-1.46c0-.274-.223-.496-.496-.496h-2.036c-.253 0-.459-.19-.489-.442-.086-.756-.23-1.495-.43-2.209-.069-.243.05-.496.281-.592l1.874-.777c.253-.104.373-.394.27-.647l-.56-1.35c-.104-.253-.394-.372-.647-.268l-1.88.78c-.235.096-.497 0-.62-.22-.369-.659-.786-1.285-1.249-1.873-.157-.198-.145-.478.033-.656l1.438-1.438c.194-.194.194-.508 0-.7l-1.032-1.034c-.194-.194-.508-.194-.7 0l-1.44 1.44c-.178.177-.458.188-.655.032-.589-.464-1.215-.882-1.873-1.249-.22-.123-.316-.386-.22-.619l.78-1.88c.104-.254-.016-.544-.269-.649l-1.35-.558c-.252-.105-.543.015-.647.268l-.776 1.874c-.097.232-.35.35-.592.282-.715-.2-1.453-.344-2.209-.432-.25-.028-.443-.234-.443-.487v-2.036c0-.274-.22-.497-.496-.497h-1.46c-.273 0-.496.223-.496.497v2.036c0 .253-.19.46-.44.487-.758.088-1.496.231-2.21.432-.243.068-.496-.049-.593-.282l-.776-1.874c-.105-.253-.395-.373-.648-.268l-1.349.558c-.253.105-.373.395-.268.648l.78 1.881c.095.233-.002.496-.22.62-.659.366-1.285.784-1.873 1.248-.199.156-.478.145-.657-.033L13.15 23.51c-.193-.194-.507-.194-.7 0l-1.033 1.033c-.194.193-.194.507 0 .701l1.438 1.438c.18.178.19.458.033.656-.464.588-.88 1.214-1.249 1.872-.123.22-.386.317-.618.221l-1.882-.78c-.253-.104-.542.016-.647.27l-.559 1.348c-.104.253.016.543.27.647l1.873.777c.232.096.35.35.282.592-.2.714-.345 1.453-.432 2.21-.029.25-.235.441-.487.441H7.401c-.274 0-.496.222-.496.496v1.46c0 .274.222.496.496.496h2.037c.252 0 .458.191.487.442.087.756.231 1.494.432 2.21.067.242-.05.495-.282.591l-1.874.776c-.253.105-.373.395-.269.648l.56 1.35c.104.252.393.372.646.268l1.882-.78c.232-.096.495.001.618.221.368.658.785 1.284 1.25 1.872.155.198.145.477-.034.656l-1.438 1.438c-.194.194-.194.508 0 .701l1.033 1.033c.193.193.507.193.7 0l1.438-1.439c.18-.178.458-.189.657-.033.588.464 1.214.881 1.872 1.25.22.122.316.385.22.618l-.779 1.881c-.105.253.015.543.268.647l1.35.56c.252.104.542-.016.647-.269l.776-1.874c.097-.233.35-.35.592-.282.715.201 1.453.344 2.21.431.25.03.441.235.441.488v2.037c0 .273.223.495.496.495h1.46c.275 0 .496-.222.496-.495v-2.037c0-.253.192-.459.443-.488.756-.087 1.494-.23 2.21-.43.241-.069.494.048.591.281l.776 1.874c.104.253.395.373.647.268l1.35-.559c.253-.104.373-.394.27-.647l-.78-1.88c-.097-.234 0-.497.22-.62.657-.368 1.283-.785 1.872-1.249.197-.156.477-.145.655.033l1.44 1.44c.192.192.506.192.7 0l1.032-1.034c.194-.193.194-.507 0-.7l-1.438-1.439c-.178-.179-.19-.458-.033-.656.463-.588.88-1.214 1.25-1.872.122-.22.384-.317.618-.22l1.881.78c.253.103.543-.017.647-.27l.56-1.349c.103-.253-.017-.543-.27-.648l-1.874-.776c-.232-.096-.35-.349-.28-.592.2-.715.343-1.453.43-2.209.03-.25.235-.442.488-.442h2.036c.273 0 .496-.222.496-.496z"/>
        <path stroke-linecap="round" d="M31.534 31.607c.812 1.327 1.278 2.886 1.278 4.555 0 4.83-3.915 8.744-8.744 8.744-4.83 0-8.745-3.915-8.745-8.744 0-4.83 3.915-8.745 8.745-8.745 1.637 0 3.168.45 4.478 1.232"/>
        <path d="M59.774 25.49v-1.46c0-.273-.223-.496-.496-.496h-1.832c-.232 0-.424-.162-.48-.387-.16-.65-.416-1.261-.752-1.82-.119-.197-.097-.447.067-.611l1.293-1.294c.194-.194.194-.508 0-.702l-1.03-1.032c-.195-.194-.509-.194-.704 0l-1.294 1.294c-.163.164-.414.185-.612.066-.557-.335-1.17-.591-1.819-.752-.224-.056-.387-.247-.387-.48v-1.831c0-.274-.223-.496-.496-.496h-1.459c-.274 0-.497.222-.497.496v1.832c0 .232-.162.423-.387.479-.649.16-1.26.416-1.819.752-.198.119-.448.098-.612-.066l-1.294-1.294c-.194-.194-.508-.194-.703 0l-1.03 1.032c-.195.194-.195.508 0 .702l1.293 1.294c.164.164.186.414.066.612-.335.558-.59 1.17-.75 1.819-.057.225-.249.387-.48.387h-1.833c-.274 0-.497.223-.497.497v1.459c0 .274.223.496.497.496h1.832c.232 0 .424.163.48.387.161.65.416 1.26.751 1.82.12.198.098.448-.066.612l-1.294 1.293c-.194.194-.194.509 0 .703l1.031 1.03c.195.195.51.195.703 0l1.294-1.293c.164-.163.414-.185.612-.066.558.336 1.17.59 1.82.752.224.056.386.248.386.479v1.833c0 .274.223.496.497.496h1.46c.272 0 .495-.222.495-.496v-1.833c0-.231.163-.423.387-.48.65-.16 1.262-.415 1.82-.751.197-.12.448-.097.611.066l1.294 1.294c.195.194.51.194.703 0l1.031-1.031c.194-.194.194-.51 0-.703l-1.293-1.293c-.164-.164-.186-.414-.067-.612.336-.56.591-1.17.752-1.82.056-.224.248-.387.48-.387h1.832c.273 0 .496-.222.496-.496z"/>
        <path stroke-linecap="round" d="M47.48 22.936c.618-1.021 1.74-1.706 3.022-1.706 1.95 0 3.53 1.581 3.53 3.53 0 1.95-1.58 3.53-3.53 3.53-1.46 0-2.716-.89-3.25-2.156-.18-.422-.279-.887-.279-1.373"/>
        <path d="M0.5 5.93L37.635 5.93 43.016 11.311 64.479 11.311"/>
        <path stroke-linecap="round" d="M43.656 5.93L47.483 5.93M50.206 5.93L54.033 5.93M56.756 5.93L60.584 5.93"/>
    </g>
</svg>
