<svg xmlns="http://www.w3.org/2000/svg" width="67" height="54" viewBox="0 0 67 54">
    <g fill="none" fill-rule="evenodd" stroke="#78FFD6">
        <path d="M26.988 52.716l1.352-.55c.253-.105.375-.394.271-.648l-.692-1.697c-.088-.214-.01-.453.177-.59.54-.394 1.01-.86 1.4-1.383.139-.185.38-.26.593-.17l1.687.71c.252.105.543-.014.65-.267l.564-1.344c.106-.253-.013-.544-.266-.65l-1.685-.71c-.213-.089-.329-.313-.293-.54.1-.645.105-1.308.01-1.97-.035-.229.082-.452.296-.54l1.697-.692c.253-.104.375-.393.271-.647l-.552-1.35c-.103-.254-.393-.377-.646-.273l-1.697.692c-.213.088-.453.01-.59-.177-.395-.54-.86-1.01-1.383-1.4-.184-.139-.26-.379-.17-.592l.709-1.687c.107-.253-.012-.544-.265-.65l-1.345-.565c-.253-.106-.543.012-.65.265l-.71 1.687c-.088.214-.313.328-.541.293-.643-.1-1.306-.105-1.968-.009-.23.033-.453-.083-.54-.297l-.692-1.697c-.104-.254-.393-.376-.648-.272l-1.35.551c-.255.104-.377.394-.273.648l.692 1.696c.088.214.01.453-.177.59-.54.394-1.01.861-1.4 1.383-.139.185-.379.26-.591.17l-1.686-.709c-.253-.106-.544.013-.652.266l-.564 1.345c-.107.253.011.544.264.65l1.687.71c.213.088.328.312.293.541-.1.644-.105 1.306-.008 1.968.032.23-.084.452-.299.54l-1.696.692c-.253.103-.375.393-.271.647l.55 1.351c.104.254.394.376.649.272l1.695-.693c.215-.087.453-.009.59.178.395.54.861 1.01 1.384 1.4.184.14.26.378.17.592l-.708 1.687c-.108.253.011.544.264.65l1.346.565c.252.107.544-.012.649-.265l.709-1.687c.09-.213.314-.328.541-.292.645.1 1.308.105 1.97.008.229-.033.451.083.538.298l.694 1.696c.103.254.393.376.646.272z"/>
        <path stroke-linecap="round" d="M24.706 40.369c1.181.186 2.237.967 2.722 2.154.736 1.804-.129 3.865-1.934 4.6-1.805.738-3.865-.13-4.6-1.933-.554-1.354-.205-2.851.765-3.825.324-.326.716-.592 1.167-.777"/>
        <path d="M46.835 19.378l-1.23-.785c-.23-.147-.539-.079-.686.152l-.984 1.545c-.125.195-.366.27-.584.196-.635-.213-1.287-.327-1.939-.345-.23-.006-.43-.159-.48-.385l-.396-1.786c-.059-.268-.324-.437-.592-.378l-1.424.316c-.268.06-.437.324-.377.592l.394 1.786c.05.226-.066.45-.273.552-.583.29-1.127.668-1.613 1.13-.167.16-.417.193-.61.068l-1.546-.985c-.23-.148-.538-.08-.685.152l-.786 1.23c-.147.231-.079.538.153.685l1.545.986c.194.124.27.364.195.584-.213.633-.327 1.286-.344 1.938-.007.231-.159.43-.384.48l-1.788.396c-.267.06-.436.324-.377.591l.315 1.425c.06.268.324.437.592.378l1.787-.396c.225-.05.448.066.552.274.29.583.67 1.127 1.13 1.612.16.167.192.417.068.612l-.986 1.545c-.147.231-.079.538.152.686l1.23.784c.232.147.538.08.686-.152l.985-1.545c.124-.195.364-.27.584-.196.634.214 1.286.327 1.938.345.231.006.43.16.481.385l.395 1.786c.06.268.324.437.592.378l1.424-.316c.268-.059.437-.324.378-.59l-.395-1.788c-.05-.226.066-.448.273-.552.583-.29 1.127-.668 1.612-1.129.168-.16.417-.194.613-.069l1.545.985c.23.148.538.08.685-.152l.784-1.23c.148-.23.08-.538-.15-.685l-1.546-.985c-.195-.125-.27-.365-.196-.584.214-.634.327-1.287.345-1.938.005-.232.158-.43.384-.48l1.786-.396c.268-.06.437-.325.378-.592l-.315-1.425c-.06-.268-.324-.437-.592-.377l-1.787.395c-.226.05-.448-.066-.55-.274-.292-.583-.67-1.127-1.13-1.612-.16-.167-.194-.417-.07-.612l.985-1.544c.148-.232.08-.539-.15-.686z"/>
        <path stroke-linecap="round" d="M38.072 28.371c-.53-1.07-.503-2.385.187-3.466 1.047-1.643 3.23-2.126 4.873-1.078 1.643 1.048 2.127 3.23 1.078 4.874-.786 1.232-2.21 1.812-3.566 1.583-.452-.077-.896-.243-1.307-.505M24.484 19.187c-2.548-2.38-5.97-3.837-9.73-3.837C6.88 15.35.5 21.73.5 29.603c0 6.578 4.455 12.115 10.513 13.758M55.148 24.785c.264-.023.53-.034.8-.034 5.275 0 9.553 4.277 9.553 9.552 0 5.277-4.278 9.553-9.553 9.553h-9.54"/>
        <path stroke-linecap="round" d="M18.593 15.875C20.218 7.125 27.891.5 37.112.5c10.403 0 18.835 8.433 18.835 18.835 0 3.121-.758 6.064-2.101 8.656M24.16 31.798L24.16 26.808 29.16 26.808M41.231 38.878L41.231 43.878 36.241 43.878"/>
        <path stroke-linecap="round" d="M28.549 28.03L29.772 26.808 28.55 25.585M22.938 31.186L24.161 32.409 25.383 31.187M42.452 39.489L41.23 38.267 40.008 39.489M36.865 42.656L35.615 43.87 36.864 45.101"/>
    </g>
</svg>
