<svg xmlns="http://www.w3.org/2000/svg" xmlns:xlink="http://www.w3.org/1999/xlink" width="66" height="80" viewBox="0 0 66 80">
    <defs>
        <path id="prefix__a" d="M0 79.39L65.489 79.39 65.489 0 0 0z"/>
    </defs>
    <g fill="none" fill-rule="evenodd">
        <path stroke="#78FFD6" d="M24.816 51.46c0 4.42-3.591 8-8 8-4.421 0-8-3.58-8-8 0-.82.119-1.61.359-2.36.88-2.87 3.34-5.05 6.36-5.54.42-.07.84-.1 1.28-.1 1.11 0 2.16.22 3.11.63h.01c2.43 1.04 4.25 3.24 4.74 5.9.09.48.14.97.14 1.47z"/>
        <path stroke="#78FFD6" d="M19.925 44.09c-.42 1.39-1.21 2.61-2.26 3.57-1.42 1.29-3.31 2.07-5.38 2.07-1.1 0-2.15-.22-3.11-.63.88-2.87 3.34-5.05 6.36-5.54.42-.07.84-.1 1.281-.1 1.11 0 2.16.22 3.11.63z"/>
        <path stroke="#78FFD6" d="M17.666 47.66c1.45 1.5 3.49 2.43 5.74 2.43.43 0 .86-.03 1.27-.1-.49-2.66-2.31-4.86-4.74-5.9h-.01c-.95-.41-2-.63-3.11-.63-.44 0-.86.03-1.28.1M32.949 77.89V67.835c0-.408-.25-.776-.628-.928l-10.445-4.178-5.151 3.757h-.001l-5.15-3.757-10.445 4.178c-.38.152-.628.52-.628.928V77.89c0 .552.447 1 1 1h30.448c.553 0 1-.448 1-1z"/>
        <path stroke="#78FFD6" d="M11.574 62.729v3.853c0 .552.447 1 1 1h8.243c.552 0 1-.448 1-1v-3.853"/>
        <mask id="prefix__b" fill="#fff">
            <use xlink:href="#prefix__a"/>
        </mask>
        <path stroke="#78FFD6" d="M14.854 71.263L18.536 71.263 18.536 67.581 14.854 67.581zM14.854 71.263L12.583 78.89M18.536 71.263L20.807 78.89" mask="url(#prefix__b)"/>
        <path stroke="#78FFD6" stroke-linecap="round" d="M5.992 78.89L5.992 71.365M27.457 78.89L27.457 71.365M16.724 38.46V5.546c0-.553.448-1.001 1.001-1.001h46.263c.552 0 1.002.448 1.002 1v62.877c0 .553-.45 1-1.002 1H38" mask="url(#prefix__b)"/>
        <path stroke="#78FFD6" d="M26.681 37.765L30.494 37.765 30.494 29.683 26.681 29.683zM33.144 37.765L36.957 37.765 36.957 26.132 33.144 26.132zM39.608 37.765L43.421 37.765 43.421 22.626 39.608 22.626zM46.073 37.765L49.886 37.765 49.886 20.291 46.073 20.291zM52.537 37.765L56.35 37.765 56.35 17.731 52.537 17.731z" mask="url(#prefix__b)"/>
        <path stroke="#78FFD6" stroke-linecap="round" d="M23.407 40.258L59.649 40.258M26.68 25.968s15.701-5.928 21.446-12.983" mask="url(#prefix__b)"/>
        <path stroke="#78FFD6" stroke-linecap="round" d="M48.126 16.451L48.126 12.986 44.66 12.986M21.724.5L21.724 8.453M59.99.5L59.99 8.453M52.336.5L52.336 8.453M44.683.5L44.683 8.453M37.03.5L37.03 8.453M29.377.5L29.377 8.453M27.658 45.245L59.649 45.245 59.649 51.1 29.516 51.1M27.658 56.548L39.609 56.548M51.481 62.078L32.307 62.078M54.926 62.078L59.649 62.078M43.421 56.548L59.649 56.548" mask="url(#prefix__b)"/>
    </g>
</svg>
