<svg xmlns="http://www.w3.org/2000/svg" xmlns:xlink="http://www.w3.org/1999/xlink" width="66" height="67" viewBox="0 0 66 67">
    <defs>
        <path id="prefix__a" d="M0 66.744L65.058 66.744 65.058 0 0 0z"/>
    </defs>
    <g fill="none" fill-rule="evenodd">
        <path stroke="#78FFD6" d="M13.84 51.335c0 2.58-2.092 4.67-4.672 4.67-2.579 0-4.67-2.09-4.67-4.67s2.091-4.671 4.67-4.671c2.58 0 4.671 2.09 4.671 4.67z"/>
        <path stroke="#78FFD6" d="M4.497 50.95s3.44.747 5.164-1.638c1.466 1.123 2.644 1.123 4.011.784"/>
        <path stroke="#78FFD6" stroke-linecap="round" d="M.78 66.244v-3.285c0-2.543 2.062-4.605 4.604-4.605h7.96c2.544 0 4.606 2.062 4.606 4.605v3.285"/>
        <path stroke="#78FFD6" d="M37.097 51.335c0 2.58-2.09 4.67-4.67 4.67s-4.672-2.09-4.672-4.67 2.091-4.671 4.671-4.671 4.671 2.09 4.671 4.67z"/>
        <path stroke="#78FFD6" d="M27.755 50.95s3.44.747 5.163-1.638c1.465 1.123 2.644 1.123 4.011.784"/>
        <path stroke="#78FFD6" stroke-linecap="round" d="M24.037 66.244v-3.285c0-2.543 2.063-4.605 4.605-4.605h7.96c2.544 0 4.606 2.062 4.606 4.605v3.285"/>
        <path stroke="#78FFD6" d="M60.168 51.335c0 2.58-2.092 4.67-4.67 4.67-2.58 0-4.672-2.09-4.672-4.67s2.091-4.671 4.671-4.671 4.671 2.09 4.671 4.67z"/>
        <path stroke="#78FFD6" d="M50.827 50.95s3.439.747 5.163-1.638c1.465 1.123 2.643 1.123 4.01.784"/>
        <path stroke="#78FFD6" stroke-linecap="round" d="M47.108 66.244v-3.285c0-2.543 2.062-4.605 4.605-4.605h7.96c2.544 0 4.606 2.062 4.606 4.605v3.285"/>
        <mask id="prefix__b" fill="#fff">
            <use xlink:href="#prefix__a"/>
        </mask>
        <path stroke="#78FFD6" stroke-linecap="round" stroke-linejoin="round" d="M.5 8.436L64.558 8.436 64.558 4.157.5 4.157zM3.866 42.585L61.192 42.585 61.192 8.436 3.866 8.436z" mask="url(#prefix__b)"/>
        <path stroke="#78FFD6" d="M35.357 34.348l1.35-.55c.254-.104.377-.394.273-.648l-.692-1.697c-.088-.214-.01-.454.177-.589.54-.395 1.01-.863 1.4-1.384.138-.186.379-.26.592-.17l1.687.71c.253.105.544-.014.65-.267l.565-1.344c.106-.253-.013-.544-.265-.65l-1.687-.71c-.213-.09-.327-.313-.292-.542.099-.643.104-1.306.009-1.968-.034-.229.083-.452.296-.54l1.697-.692c.254-.104.376-.394.272-.647l-.551-1.35c-.104-.255-.393-.376-.647-.273l-1.696.693c-.215.087-.454.01-.591-.178-.394-.54-.861-1.01-1.383-1.4-.185-.139-.26-.378-.17-.592l.709-1.687c.106-.253-.013-.544-.266-.65l-1.344-.565c-.253-.106-.544.012-.651.265l-.71 1.687c-.088.214-.312.328-.541.293-.643-.1-1.306-.106-1.968-.009-.23.033-.452-.083-.54-.298l-.692-1.696c-.103-.254-.393-.375-.647-.272l-1.351.551c-.254.104-.376.394-.272.648l.692 1.696c.088.215.01.454-.177.59-.54.394-1.01.862-1.4 1.383-.14.186-.378.26-.592.17l-1.686-.709c-.253-.106-.544.013-.651.266l-.565 1.345c-.107.253.012.544.265.65l1.687.71c.214.09.328.312.292.541-.1.644-.105 1.307-.008 1.968.033.23-.083.452-.298.54l-1.696.692c-.254.104-.376.393-.272.647l.55 1.351c.105.254.395.375.649.272l1.696-.693c.214-.086.453-.009.59.178.394.54.86 1.01 1.384 1.401.184.138.259.377.17.591l-.71 1.687c-.106.253.013.544.266.65l1.345.566c.253.105.544-.013.649-.266l.71-1.686c.089-.214.313-.329.54-.293.646.1 1.308.105 1.97.008.23-.033.452.083.539.298l.693 1.697c.103.253.393.375.647.271z" mask="url(#prefix__b)"/>
        <path stroke="#78FFD6" stroke-linecap="round" d="M33.076 22c1.18.188 2.236.968 2.72 2.155.738 1.805-.128 3.865-1.933 4.602-1.805.736-3.865-.13-4.601-1.935-.553-1.353-.204-2.85.766-3.825.324-.325.717-.592 1.168-.776M42.504 15.348L40.775 15.347 40.775 17.076" mask="url(#prefix__b)"/>
        <path stroke="#78FFD6" stroke-linecap="round" d="M25.462 36.633c-3.709-2.323-6.176-6.446-6.176-11.146 0-7.256 5.883-13.139 13.14-13.139 1.918 0 3.74.411 5.383 1.15M40.785 15.35c2.92 2.41 4.78 6.056 4.78 10.138 0 7.257-5.882 13.14-13.138 13.14-1.47 0-2.882-.24-4.201-.685M32.426.5h0c-1.38 0-2.5 1.12-2.5 2.5v1.156h5.001V3c0-1.381-1.12-2.501-2.5-2.501z" mask="url(#prefix__b)"/>
        <path stroke="#78FFD6" stroke-linecap="round" d="M23.852 36.954L25.581 36.954 25.581 35.225" mask="url(#prefix__b)"/>
    </g>
</svg>
